# AST/ASF file generated using VICON BodyLanguage
# -----------------------------------------------
:version 1.10
:name VICON
:units
  mass 1.0
  length 0.45
  angle deg
:documentation
   .ast/.asf automatically generated from VICON data using
   VICON BodyBuilder and BodyLanguage model FoxedUp or BRILLIANT.MOD
:root
   order TX TY TZ RX RY RZ
   axis XYZ
   position 0 0 0  
   orientation 0 0 0 
:bonedata
  begin
     id 1 
     name lhipjoint
     direction 0.522423 -0.726805 0.445902 
     length 2.25074 
     axis 0 0 0  XYZ
  end
  begin
     id 2 
     name lfemur
     direction 0.34202 -0.939693 0  
     length 6.54609  
     axis 0 0 20  XYZ
    dof rx ry rz
    limits (-160.0 20.0)
           (-70.0 70.0)
           (-60.0 70.0)
  end
  begin
     id 3 
     name ltibia
     direction 0.34202 -0.939693 0   
     length 7.7528   
     axis 0 0 20   XYZ
    dof rx
    limits (-10.0 170.0)
  end
  begin
     id 4 
     name lfoot
     direction 0.143696 -0.394801 0.90746   
     length 1.73269   
     axis -90 7.62852e-016 20   XYZ
    dof rx rz
    limits (-45.0 90.0)
           (-70.0 20.0)
  end
  begin
     id 5 
     name ltoes
     direction 1.53633e-011 -4.21912e-011 1   
     length 0.858383   
     axis -90 7.62852e-016 20   XYZ
    dof rx
    limits (-90.0 20.0)
  end
  begin
     id 6 
     name rhipjoint
     direction -0.515943 -0.73016 0.447961   
     length 2.2404  
     axis 0 0 0  XYZ 
  end
  begin
     id 7 
     name rfemur
     direction -0.34202 -0.939693 0   
     length 6.84377   
     axis 0 0 -20   XYZ
    dof rx ry rz
    limits (-160.0 20.0)
           (-70.0 70.0)
           (-70.0 60.0)
  end
  begin
     id 8 
     name rtibia
     direction -0.34202 -0.939693 0   
     length 7.57596   
     axis 0 0 -20   XYZ
    dof rx
    limits (-10.0 170.0)
 end
 begin
     id 9 
     name rfoot
     direction -0.0999372 -0.274575 0.956358   
     length 1.78783  
     axis -90 -7.62852e-016 -20   XYZ
    dof rx rz
    limits (-45.0 90.0)
           (-20.0 70.0)
  end
  begin
     id 10 
     name rtoes
     direction -1.53535e-011 -4.21895e-011 1   
     length 0.898614   
     axis -90 -7.62852e-016 -20   XYZ
    dof rx
    limits (-90.0 20.0)
  end
  begin
     id 11 
     name lowerback
     direction -0.011775 0.996164 -0.0867116   
     length 1.91499   
     axis 0 0 0   XYZ
    dof rx ry rz
    limits (-20.0 45.0)
           (-30.0 30.0)
           (-30.0 30.0)
  end
  begin
     id 12 
     name upperback
     direction -0.00189771 0.999673 -0.0254833   
     length 1.92213   
     axis 0 0 0   XYZ
    dof rx ry rz
    limits (-20.0 45.0)
           (-30.0 30.0)
           (-30.0 30.0)
  end
  begin
     id 13 
     name thorax
     direction 0.00335995 0.999878 0.0152401   
     length 1.93138   
     axis 0 0 0   XYZ
    dof rx ry rz
    limits (-20.0 45.0)
           (-30.0 30.0)
           (-30.0 30.0)
  end
  begin
     id 14 
     name lowerneck
     direction 0.00233191 0.998509 0.0545404   
     length 1.59408   
     axis 0 0 0   XYZ
    dof rx ry rz
    limits (-20.0 45.0)
           (-30.0 30.0)
           (-30.0 30.0)
  end
  begin
     id 15 
     name upperneck
     direction 0.07881 0.9956 -0.0506934   
     length 1.59344   
     axis 0 0 0   XYZ
    dof rx ry rz
    limits (-20.0 45.0)
           (-30.0 30.0)
           (-30.0 30.0)
  end
  begin
     id 16
     name head
     direction 0.0261681 0.999378 -0.0236299  
     length 1.60935  
     axis 0 0 0   XYZ
    dof rx ry rz
    limits (-20.0 45.0)
           (-30.0 30.0)
           (-30.0 30.0)
  end
  begin
     id 17 
     name lclavicle
     direction 0.96643 0.252035 0.0499195  
     length 3.82153  
     axis 0 0 0   XYZ
    dof ry rz
    limits (-20.0 10.0)
           (0.0 20.0)
  end
  begin
     id 18 
     name lhumerus
     direction 1 -4.48967e-011 -2.01614e-018   
     length 4.87796   
     axis 180 -30 -90   XYZ
    dof rx ry rz
    limits (-60.0 90.0)
           (-90.0 90.0)
           (-90.0 90.0)
  end
  begin
     id 19
     name lradius
     direction 1 -4.48958e-011 3.1409e-027   
     length 3.23169   
     axis 180 -30 -90   XYZ
    dof rx
    limits (-10.0 170.0)
  end
  begin
     id 20
     name lwrist
     direction 1 -4.48924e-011 1.0365e-027   
     length 1.61584   
     axis -2.56395e-016 90 90   XYZ
    dof ry
    limits (-180.0 0.0)
 end
  begin
     id 21 
     name lhand
     direction 1 -4.49055e-011 2.09488e-027   
     length 0.731324   
     axis -1.32723e-015 90 90   XYZ
    dof rx rz
    limits (-90.0 90.0)
           (-45.0 45.0)
  end
  begin
     id 22 
     name lfingers
     direction 1 -4.48935e-011 4.14981e-027   
     length 0.589612   
     axis -2.6545e-015 90 90   XYZ
    dof rx
    limits (0.0 90.0)
  end
  begin
     id 23
     name lthumb
     direction 0.707107 -6.35097e-011 0.707107   
     length 0.846569   
     axis -90 45 5.05613e-014   XYZ
    dof rx rz
    limits (-45.0 45.0)
           (-45.0 45.0)
  end
  begin
     id 24 
     name rclavicle
     direction -0.979337 0.201016 0.0221522   
     length 3.73827  
     axis 0 0 0   XYZ 
    dof ry rz
    limits (-10.0 20.0)
           (-20.0 0.0)
  end
  begin
     id 25 
     name rhumerus
     direction -1 -4.48971e-011 1.65907e-027  
     length 4.9143   
     axis 180 30 90   XYZ
    dof rx ry rz
    limits (-90.0 60.0)
           (-90.0 90.0)
           (-90.0 90.0)
  end
  begin
     id 26 
     name rradius
     direction -1 -4.4894e-011 2.17871e-028   
     length 3.29093   
     axis 180 30 90   XYZ
    dof rx
    limits (-10.0 170.0)
  end
  begin
     id 27 
     name rwrist
     direction -1 -4.48971e-011 1.04038e-027   
     length 1.64546   
     axis -2.56395e-016 -90 -90   XYZ
    dof ry
    limits (-180.0 0.0)
  end
  begin
     id 28
     name rhand
     direction -1 -4.49017e-011 2.08843e-027   
     length 0.54512   
     axis -1.32723e-015 -90 -90   XYZ
    dof rx rz
    limits (-90.0 90.0)
           (-45.0 45.0)
  end
  begin
     id 29
     name rfingers
     direction -1 -4.48918e-011 4.1439e-027   
     length 0.43949   
     axis -2.6545e-015 -90 -90   XYZ
    dof rx
    limits (0.0 90.0)
  end
  begin
     id 30
     name rthumb
     direction -0.707107 -6.35065e-011 0.707107   
     length 0.631022   
     axis -90 -45 -5.05613e-014   XYZ
    dof rx rz
    limits (-45.0 45.0)
           (-45.0 45.0)
  end
:hierarchy
  begin
    root lhipjoint rhipjoint lowerback
    lhipjoint lfemur
    lfemur ltibia
    ltibia lfoot
    lfoot ltoes
    rhipjoint rfemur
    rfemur rtibia
    rtibia rfoot
    rfoot rtoes
    lowerback upperback
    upperback thorax
    thorax lowerneck lclavicle rclavicle
    lowerneck upperneck
    upperneck head
    lclavicle lhumerus
    lhumerus lradius
    lradius lwrist
    lwrist lhand lthumb
    lhand lfingers
    rclavicle rhumerus
    rhumerus rradius
    rradius rwrist
    rwrist rhand rthumb
    rhand rfingers
  end

#!OML:ASF H:\BreakDance\Project 1\Capture day 1\Session 1\Male.ASF
:FULLY-SPECIFIED
:DEGREES
620
root 23.2321 15.999 3.034 -162.996 -53.5184 167.627
lowerback -1.07157 -2.63232 5.75791
upperback 4.50886 -3.86959 0.240733
thorax 4.92779 -1.74256 -3.16592
lowerneck -0.840656 7.02272 -0.674314
upperneck 5.73675 9.75758 -11.323
head 2.61268 4.44125 -3.33678
rclavicle 5.4467e-014 -4.6118e-014
rhumerus 8.67398 6.04084 -103.019
rradius 25.6355
rwrist 2.70794
rhand -29.0555 -22.3443
rfingers 7.12502
rthumb -2.40533 -52.3105
lclavicle 5.4467e-014 -4.6118e-014
lhumerus 58.2481 -50.2606 30.5754
lradius 35.8381
lwrist 0.945036
lhand -13.0994 -27.5267
lfingers 7.12502
lthumb 12.9974 2.04838
rfemur -53.1958 3.00511 26.5526
rtibia 45.7402
rfoot -2.00071 14.592
rtoes -28.5291
lfemur -3.44773 22.2353 -42.2035
ltibia 28.7923
lfoot -17.4353 -10.8089
ltoes 9.51416
621
root 23.2289 15.9218 3.03349 -162.58 -53.9124 167.096
lowerback -1.07067 -2.57392 5.80645
upperback 4.29984 -3.7791 0.325011
thorax 4.718 -1.70456 -3.09456
lowerneck -1.19429 6.84028 -0.505171
upperneck 5.89428 9.54918 -11.399
head 2.73298 4.32134 -3.38972
rclavicle 2.3059e-014 3.18055e-015
rhumerus 9.00869 5.72265 -103.811
rradius 25.4698
rwrist 3.59876
rhand -29.1928 -22.4121
rfingers 7.12502
rthumb -2.53794 -52.3768
lclavicle 2.3059e-014 3.18055e-015
lhumerus 61.522 -50.7532 28.1221
lradius 34.6567
lwrist 0.39668
lhand -13.4295 -27.9609
lfingers 7.12502
lthumb 12.6792 1.63421
rfemur -52.336 1.47803 27.5127
rtibia 42.3432
rfoot 0.639041 16.0113
rtoes -27.1567
lfemur -3.00012 21.5812 -42.7132
ltibia 28.5489
lfoot -19.2326 -9.58111
ltoes 9.28338
622
root 23.2269 15.8458 3.03096 -162.239 -54.1683 166.616
lowerback -0.814503 -2.54408 5.69373
upperback 4.03127 -3.70226 0.445793
thorax 4.31038 -1.68782 -2.88104
lowerneck -1.45584 6.71603 -0.544908
upperneck 5.97098 9.40237 -11.3175
head 2.78966 4.23883 -3.35149
rclavicle 6.36111e-015 -3.81667e-014
rhumerus 9.01616 5.52688 -104.464
rradius 25.2912
rwrist 3.17787
rhand -29.179 -22.9026
rfingers 7.12502
rthumb -2.5246 -52.8674
lclavicle 6.36111e-015 -3.81667e-014
lhumerus 64.1399 -51.1934 26.2376
lradius 33.5949
lwrist -0.209699
lhand -13.5741 -28.4102
lfingers 7.12502
lthumb 12.5398 1.19352
rfemur -51.5784 0.265355 28.3479
rtibia 39.3937
rfoot 3.10382 17.1192
rtoes -25.3945
lfemur -2.56541 20.9656 -43.1071
ltibia 28.305
lfoot -20.939 -8.83754
ltoes 9.04457
623
root 23.2256 15.7704 3.02565 -161.956 -54.2998 166.191
lowerback -0.397611 -2.52536 5.46724
upperback 3.73418 -3.62589 0.566807
thorax 3.78871 -1.67798 -2.59614
lowerneck -1.61668 6.62621 -0.729463
upperneck 5.9658 9.28625 -11.0966
head 2.7841 4.18032 -3.24068
rclavicle -2.74323e-014 1.11319e-014
rhumerus 8.73606 5.31517 -105.004
rradius 25.1507
rwrist 1.96585
rhand -28.9707 -23.641
rfingers 7.12502
rthumb -2.32345 -53.6081
lclavicle -2.74323e-014 1.11319e-014
lhumerus 66.0402 -51.6097 25.0091
lradius 32.6979
lwrist -0.872205
lhand -13.4214 -28.7468
lfingers 7.12502
lthumb 12.6869 0.847797
rfemur -50.9374 -0.638639 29.0419
rtibia 36.9453
rfoot 5.38068 17.7842
rtoes -23.1772
lfemur -2.16785 20.4104 -43.413
ltibia 28.0858
lfoot -22.5918 -8.45975
ltoes 8.36199
624
root 23.2246 15.6948 3.01711 -161.674 -54.3549 165.784
lowerback -0.0142257 -2.49791 5.17237
upperback 3.49669 -3.54366 0.644523
thorax 3.3508 -1.66144 -2.32319
lowerneck -1.7282 6.5406 -0.944034
upperneck 5.86181 9.1637 -10.797
head 2.72911 4.12842 -3.09956
rclavicle 6.91771e-014 -3.65764e-014
rhumerus 8.27886 5.01313 -105.417
rradius 25.1236
rwrist 0.540264
rhand -28.6433 -24.4481
rfingers 7.12502
rthumb -2.00724 -54.4184
lclavicle 6.91771e-014 -3.65764e-014
lhumerus 67.3645 -51.9653 24.3309
lradius 32.0115
lwrist -1.5658
lhand -12.9272 -28.8403
lfingers 7.12502
lthumb 13.1634 0.724134
rfemur -50.4392 -1.26119 29.5534
rtibia 35.0251
rfoot 7.47079 17.8984
rtoes -20.5472
lfemur -1.84419 19.9279 -43.6753
ltibia 27.9442
lfoot -24.2242 -8.3044
ltoes 6.90738
625
root 23.2229 15.6192 3.00525 -161.344 -54.3939 165.383
lowerback 0.195355 -2.46221 4.85393
upperback 3.36494 -3.46796 0.66034
thorax 3.1184 -1.6395 -2.11423
lowerneck -1.81668 6.43145 -1.12881
upperneck 5.68289 9.00196 -10.4707
head 2.64334 4.06429 -2.95774
rclavicle 9.85972e-014 -2.70347e-014
rhumerus 7.67696 4.7394 -105.645
rradius 25.2974
rwrist -0.735626
rhand -28.3563 -25.1589
rfingers 7.12502
rthumb -1.73001 -55.1316
lclavicle 9.85972e-014 -2.70347e-014
lhumerus 68.2556 -52.2485 24.0439
lradius 31.5833
lwrist -2.21851
lhand -12.1611 -28.6263
lfingers 7.12502
lthumb 13.9017 0.889043
rfemur -50.1121 -1.62033 29.8499
rtibia 33.6307
rfoot 9.37426 17.4636
rtoes -17.5342
lfemur -1.62763 19.5362 -43.9246
ltibia 27.92
lfoot -25.8628 -8.1872
ltoes 4.53886
626
root 23.2198 15.5453 2.99084 -160.959 -54.4816 165.027
lowerback 0.146448 -2.43129 4.57773
upperback 3.35865 -3.42122 0.618549
thorax 3.15432 -1.62148 -2.00538
lowerneck -1.87562 6.29594 -1.28503
upperneck 5.41068 8.79602 -10.126
head 2.52036 3.98576 -2.81834
rclavicle -1.74931e-014 3.18055e-015
rhumerus 6.9515 4.68122 -105.627
rradius 25.7145
rwrist -1.74852
rhand -28.2565 -25.6327
rfingers 7.12502
rthumb -1.63361 -55.6062
lclavicle -1.74931e-014 3.18055e-015
lhumerus 68.8953 -52.4527 23.9193
lradius 31.4213
lwrist -2.72827
lhand -11.2974 -28.1636
lfingers 7.12502
lthumb 14.734 1.29277
rfemur -49.9806 -1.7301 29.9456
rtibia 32.7076
rfoot 11.0951 16.6434
rtoes -13.8802
lfemur -1.56283 19.2396 -44.1444
ltibia 28.0332
lfoot -27.4624 -8.05405
ltoes 1.94062
627
root 23.2153 15.4768 2.9757 -160.531 -54.6714 164.764
lowerback -0.169087 -2.41622 4.41418
upperback 3.48398 -3.41763 0.523602
thorax 3.46573 -1.61364 -2.03156
lowerneck -1.95952 6.11991 -1.40384
upperneck 5.07483 8.53271 -9.75624
head 2.38035 3.88327 -2.67949
rclavicle 7.27552e-014 -5.08889e-014
rhumerus 6.1541 4.90747 -105.362
rradius 26.363
rwrist -2.51436
rhand -28.4038 -25.8035
rfingers 7.12502
rthumb -1.77594 -55.7759
lclavicle 7.27552e-014 -5.08889e-014
lhumerus 69.5594 -52.572 23.6203
lradius 31.4931
lwrist -2.97529
lhand -10.5345 -27.5385
lfingers 7.12502
lthumb 15.4688 1.8626
rfemur -50.0419 -1.5978 29.8592
rtibia 32.1554
rfoot 12.6498 15.7258
rtoes -9.11122
lfemur -1.67255 19.0555 -44.2969
ltibia 28.2802
lfoot -28.9732 -7.91762
ltoes -0.361459
628
root 23.2105 15.417 2.962 -160.112 -54.9812 164.647
lowerback -0.572046 -2.44419 4.39137
upperback 3.65257 -3.4801 0.411211
thorax 3.85955 -1.63209 -2.16164
lowerneck -2.02219 5.92948 -1.54519
upperneck 4.70158 8.24662 -9.33529
head 2.22156 3.77227 -2.52197
rclavicle 1.00585e-013 -7.95139e-015
rhumerus 5.18645 5.41225 -104.883
rradius 27.2332
rwrist -3.08835
rhand -28.7831 -25.7348
rfingers 7.12502
rthumb -2.14227 -55.7038
lclavicle 1.00585e-013 -7.95139e-015
lhumerus 70.2259 -52.6839 23.1314
lradius 31.7039
lwrist -2.95409
lhand -10.0436 -26.8697
lfingers 7.12502
lthumb 15.9417 2.49421
rfemur -50.2601 -1.26146 29.6523
rtibia 31.8415
rfoot 14.0757 15.116
rtoes -3.09741
lfemur -1.94858 18.9824 -44.3436
ltibia 28.6401
lfoot -30.3504 -7.82382
ltoes -2.05071
629
root 23.2068 15.3678 2.9518 -159.723 -55.3934 164.675
lowerback -0.903724 -2.52729 4.49683
upperback 3.81717 -3.61598 0.294405
thorax 4.19722 -1.68393 -2.36749
lowerneck -2.05151 5.73921 -1.75469
upperneck 4.29114 7.95738 -8.84009
head 2.04031 3.66193 -2.33037
rclavicle -5.24792e-014 4.77083e-015
rhumerus 4.01923 6.06339 -104.265
rradius 28.3104
rwrist -3.48937
rhand -29.3452 -25.5366
rfingers 7.12502
rthumb -2.68508 -55.4995
lclavicle -5.24792e-014 4.77083e-015
lhumerus 70.8608 -52.8119 22.4845
lradius 31.9338
lwrist -2.73695
lhand -9.92944 -26.3223
lfingers 7.12502
lthumb 16.0516 3.03278
rfemur -50.5907 -0.783317 29.372
rtibia 31.6413
rfoot 15.4288 15.1425
rtoes 3.96197
lfemur -2.36894 18.9946 -44.295
ltibia 29.0764
lfoot -31.5632 -7.76807
ltoes -3.15611
